<svg width="1440" height="1207" viewBox="0 0 1440 1207" fill="none" xmlns="http://www.w3.org/2000/svg">
<path d="M1444.7 1223.32C1442.43 1223.74 1394.78 1224.3 1348.43 1219.7C1324.09 1217.28 1295.67 1193.19 1260.99 1168.21C1245.37 1156.95 1234.58 1147.36 1218.23 1130.35C1201.87 1113.33 1180.48 1088.87 1153.18 1061.68C1125.87 1034.5 1093.3 1005.35 1070.79 987.134C1048.29 968.92 1036.85 962.532 1025.5 957.234C1014.15 951.937 1003.24 947.926 978.662 940.8C954.088 933.675 916.178 923.558 885.855 913.572C855.533 903.587 833.945 894.04 816.09 884.785C784.156 868.234 763.929 852.158 746.823 835.395C736.109 824.897 723.541 808.337 704.098 778.822C684.655 749.307 659.299 706.822 644.859 683.064C628.038 655.39 615.978 644.024 599.001 630.274C591.108 623.882 583.706 619.979 567.7 612.936C551.695 605.894 527.06 596.162 493.342 586.788C459.624 577.414 417.569 568.694 394.341 564.127C360.307 557.436 347.596 566.127 324.326 565.658C310.688 565.384 286.789 557.466 269.014 552.296C251.238 547.126 240.141 542.458 226.571 535.601C213.001 528.744 197.293 519.838 159.285 491.466C121.276 463.093 61.4431 415.522 29.3943 390.347C-2.65445 365.172 -5.10561 363.834 -18.4491 359.017C-55.9542 345.948 -89.6174 333.296 -104.075 326.337C-109.763 323.525 -112.104 322.177 -114.516 320.787" stroke="#002363" stroke-width="2" stroke-linecap="round"/>
<path d="M1459.46 1207.39C1459.38 1207.49 1456.47 1207.82 1444.44 1207.84C1420.12 1207.89 1389.44 1203.32 1361.17 1197.75C1313.55 1188.37 1292.52 1175.75 1281.12 1167.55C1271.94 1160.96 1256.69 1148.29 1217.37 1108.13C1178.04 1067.97 1115.32 1000.41 1080.65 963.68C1045.99 926.951 1041.29 923.097 1024.68 916.834C1008.06 910.571 979.674 902.016 956.834 895.982C933.993 889.948 917.56 886.693 900.555 881.871C883.549 877.05 866.469 870.76 851.59 864.277C836.712 857.794 824.553 851.308 807.233 838.89C789.914 826.472 767.804 808.318 753.545 795.953C733.012 778.148 717.719 756.305 696.197 720.43C668.709 674.61 656.863 644.434 653.75 640.226C652.128 638.033 649.904 636.062 630.442 623.049C610.98 610.036 574.215 586.126 543.234 568.586C512.253 551.046 488.168 540.6 465.291 532.542C421.814 517.227 396.186 513.309 382.406 513.276C372.28 513.252 356.022 514.394 335.455 514.156C290.734 513.64 261.005 510.178 252.266 507.959C244.113 505.889 237.362 502.255 201.433 476.319C168.373 452.011 105.21 405.07 51.3208 371.086C-2.56819 337.102 -45.2685 317.497 -94.0353 295.745" stroke="#002363" stroke-width="2" stroke-linecap="round"/>
<path d="M1468.48 1192.35C1468.4 1192.45 1438.41 1189.83 1382.88 1183.52C1337.07 1178.32 1313.59 1169.77 1306.3 1166.32C1294.17 1160.57 1285.1 1154.4 1275.87 1146.93C1256.01 1130.87 1235.37 1109.45 1218.07 1089.06C1209.2 1078.61 1200.88 1067.42 1179.93 1045.18C1158.98 1022.94 1125.85 989.852 1106.42 969.655C1081.5 943.771 1065.86 924.977 1045.44 904.784C1031.1 890.613 1021.45 884.429 1007.54 877.63C996.5 872.232 976.938 864.104 947.491 854.756C918.044 845.407 879.195 835.398 855.607 828.815C824.758 820.204 815.26 815.168 808.466 810.646C796.722 802.83 774.736 786.501 747.257 767.318C726.139 752.575 713.375 738.153 702.979 723.996C690.186 706.574 681.336 682.584 666.508 657.289C649.496 628.268 623.968 605.143 610.687 586.71C604.541 578.181 596.798 572.817 574.583 559.762C558.438 550.275 531.607 536.655 508.001 525.137C484.396 513.619 464.625 505.046 448.108 498.811C419.151 487.882 401.24 484.479 384.596 483.097C327.728 478.377 305.788 480.354 290.704 482.142C277.726 483.68 250.82 470.873 229.078 458.441C224.048 455.564 220.468 452.155 205.624 445.055C170.648 428.324 141.711 417 129.101 409.916C90.8163 388.409 69.6058 373.448 50.9671 360.571C34.7801 349.388 4.48772 329.482 -14.2732 316.629C-33.0341 303.776 -39.4592 298.763 -43.8795 295.416C-48.2998 292.069 -50.5206 290.54 -52.8087 288.964" stroke="#002363" stroke-width="2" stroke-linecap="round"/>
<path d="M1484.25 1175.68C1484.17 1175.77 1452.49 1169.55 1401.94 1159.75C1377.84 1155.07 1352.66 1150.36 1320.05 1142.45C1290.68 1135.33 1267.63 1116.76 1242.67 1093.81C1229.06 1081.29 1215.86 1064.73 1196.64 1037.81C1177.43 1010.89 1153.19 973.523 1138.9 952.041C1121.47 925.843 1105.18 910.714 1085.9 893.718C1077.03 885.905 1055.47 874.673 999.336 846.843C962.737 828.698 908.991 804.2 879.966 791.005C842.963 774.182 832.294 775.954 790.631 759.78C771.757 752.454 747.098 732.087 715.438 706.95C708.176 701.184 703.946 693.082 694.781 678.638C681.703 658.028 667.024 634.174 652.221 608.398C635.119 578.619 617.997 559.273 610.921 549.903C604.695 541.658 595.266 533.962 576.203 521.362C542.378 499.004 513.741 487.413 494.277 480.101C479.926 474.709 456.317 466.683 437.577 460.892C405.762 451.063 374.269 448.298 342.127 448.341C303.053 448.395 275.28 448.161 249.28 444.065C242.811 443.045 233.86 439.713 203.142 427.239C172.423 414.765 120.228 392.666 86.0127 376.353C51.7974 360.039 37.1435 350.179 16.2955 333.719C-4.55243 317.259 -31.1504 294.498 -58.985 269.291" stroke="#002363" stroke-width="2" stroke-linecap="round"/>
<path d="M1499.03 1158.9C1498.71 1158.81 1498.4 1158.71 1473.07 1153.18C1447.74 1147.64 1397.4 1136.67 1360.27 1126.87C1323.14 1117.06 1300.73 1108.75 1284.21 1101.84C1257.44 1090.65 1241.97 1079.7 1232.59 1071.62C1226.35 1066.25 1217.91 1053.58 1204.96 1034.12C1192.89 1015.96 1181.48 997.286 1166.64 976.609C1158.38 965.098 1147.52 952.179 1135.5 938.526C1110.89 910.587 1083.01 885.226 1061.54 866.778C1047.75 854.92 1033.31 846.811 993.886 830.199C975.59 822.491 947.175 811.804 911.577 795.702C875.978 779.6 833.967 758.73 802.99 740.537C751.723 710.427 729.747 687.435 722.181 679.048C716.754 673.032 711.683 664.703 701.548 644.945C682.774 608.341 671.385 578.876 664.615 568.601C657.892 558.398 642.932 544.374 613.251 523.569C595.127 510.866 568.307 497.994 539.6 484.822C510.893 471.65 480.479 459.639 436.438 446.338C392.397 433.037 335.651 418.809 296.811 411.122C257.97 403.436 238.753 402.721 223.277 401.214C196.711 398.628 172.865 390.905 134.458 375.748C108.175 365.375 68.7634 347.125 40.3705 332.936C11.9777 318.746 -4.03255 308.549 -18.8623 297.792C-33.692 287.035 -46.8559 276.027 -54.7247 269.104C-62.5935 262.181 -64.7681 259.676 -67.0086 257.095" stroke="#002363" stroke-width="2" stroke-linecap="round"/>
<path d="M1509.86 1142.13C1509.63 1141.94 1490.91 1137.99 1439 1125.83C1405.64 1118.01 1358.21 1104.81 1330.32 1096.56C1295.38 1086.23 1281.98 1076.97 1266.94 1066.09C1235.01 1042.97 1232.47 1032.56 1227.68 1020.12C1223.08 1008.16 1205.18 976.56 1182.4 937.471C1171.55 918.846 1156.34 904.666 1137.53 888.12C1128.88 880.515 1120.44 875.997 1096.99 864.371C1079.96 855.931 1052.27 843.06 1031.33 832.273C1010.4 821.486 997.009 813.358 957.433 796.446C917.856 779.534 852.502 754.084 814.37 738.424C766.932 718.941 748.719 704.602 733.663 691.619C725.715 684.766 718.371 663.515 708.126 633.375C702.387 616.491 698.689 606.5 692.388 595.703C684.371 581.969 660.472 560.868 629.653 535.325C606.496 516.133 592.697 505.959 577.735 493.073C566.109 483.059 544.818 467.776 532.085 458.553C519.352 449.33 515.445 447.087 474.138 431.012C432.83 414.937 354.242 385.099 298.711 366.74C243.18 348.38 213.087 342.403 194.077 338.128C175.067 333.853 168.051 331.461 139.724 322.437C111.397 313.414 61.9714 297.832 28.6499 285.602C-4.67168 273.372 -20.3914 264.966 -30.1694 259.385C-39.9473 253.803 -43.307 251.301 -46.7686 248.723" stroke="#002363" stroke-width="2" stroke-linecap="round"/>
</svg>
