<svg width="1493" height="558" viewBox="0 0 1493 558" fill="none" xmlns="http://www.w3.org/2000/svg">
<path d="M1.88867 310.924C3.109 309.153 33.1997 278.187 65.2242 251.995C82.0391 238.243 113.052 238.435 148.537 235.29C164.527 233.873 176.535 234.283 196.071 236.797C215.608 239.311 242.339 244.291 274.297 247.552C306.256 250.813 342.633 252.203 366.731 251.692C390.829 251.182 401.546 248.727 411.619 245.5C421.691 242.272 430.796 238.344 450.281 228.037C469.766 217.73 499.356 201.163 524.038 189.357C548.719 177.551 567.595 171.008 583.934 166.633C613.157 158.809 634.658 158.125 654.538 159.964C666.988 161.116 683.865 165.709 712.059 175.791C740.252 185.873 779.157 202.071 801.08 210.961C826.617 221.318 840.39 222.27 858.575 221.891C867.029 221.715 873.838 219.952 887.814 215.073C901.79 210.195 922.708 201.841 949.227 187.391C975.747 172.942 1007.23 152.651 1024.49 141.253C1049.78 124.553 1053.23 109.77 1068.32 95.2151C1077.17 86.6848 1096.64 77.4163 1110.75 69.9735C1124.85 62.5307 1134.42 58.9839 1146.75 55.5244C1159.07 52.0649 1173.85 48.8003 1213.28 46.112C1252.7 43.4237 1316.31 41.4107 1350.22 40.0994C1384.13 38.7881 1386.41 38.2396 1397.5 33.3667C1428.41 19.3134 1456.65 7.40291 1469.6 3.45287C1474.73 1.95469 1476.94 1.48447 1479.22 1" stroke="#002363" stroke-width="2" stroke-linecap="round"/>
<path d="M1 332.555C1 332.425 2.67711 330.303 10.3335 322.582C25.8262 306.96 47.8341 290.785 68.84 276.926C104.234 253.572 124.394 249.74 136.055 248.686C145.434 247.838 161.941 247.744 208.51 253.216C255.078 258.689 331.234 270.086 372.994 275.924C414.755 281.761 419.813 281.694 433.76 275.83C447.707 269.966 470.39 258.307 488.185 248.278C505.981 238.249 518.202 230.204 531.627 222.988C545.052 215.773 559.311 209.631 572.269 205.047C585.227 200.463 596.451 197.624 614.142 196.009C631.832 194.394 655.647 194.09 671.357 194.395C693.98 194.835 715.422 201.717 748.345 215.324C790.394 232.702 814.096 248.157 818.334 249.376C820.542 250.011 823.015 250.091 842.39 247.558C861.765 245.024 898.006 239.724 927.15 233.266C956.294 226.807 977.243 219.351 996.145 210.845C1032.07 194.679 1050.51 181.247 1059.31 172.442C1065.78 165.971 1075.54 154.68 1088.78 141.681C1117.58 113.416 1138.39 97.008 1145.15 93.1022C1151.46 89.4586 1157.71 87.9071 1194.5 84.6906C1228.59 82.0696 1293.99 77.4413 1346.55 68.8613C1399.1 60.2814 1436.82 47.89 1479.56 33.2504" stroke="#002363" stroke-width="2" stroke-linecap="round"/>
<path d="M3.29346 349.817C3.29346 349.687 23.8241 332.473 62.6114 301.705C94.6093 276.322 114.159 267.798 120.655 265.766C131.468 262.383 140.554 261.285 150.434 261.072C171.699 260.613 196.316 263.744 218.265 268.231C229.516 270.531 240.811 273.741 266.07 277.303C291.329 280.865 330.162 284.902 353.367 287.87C383.107 291.673 403.139 296.003 426.97 298.335C443.695 299.972 453.161 298.509 465.668 294.789C475.598 291.836 492.422 285.508 516.204 273.776C539.986 262.045 570.118 244.792 588.684 234.705C612.965 221.511 621.717 219.271 628.47 218.37C640.142 216.814 662.901 215.195 690.691 212.236C712.048 209.962 727.906 212.796 742.111 216.946C759.593 222.054 778.074 234.704 801.067 244.52C827.446 255.783 856.1 257.085 874.434 262.651C882.917 265.226 890.726 264.361 911.88 260.095C927.252 256.995 951.652 250.202 972.869 243.871C994.087 237.54 1011.28 231.418 1025.15 225.594C1049.47 215.384 1062.71 206.505 1074.07 196.894C1112.86 164.055 1125.79 148.485 1134.46 137.453C1141.91 127.961 1165.92 120.5 1186.44 116.061C1191.19 115.034 1195.29 115.344 1208.56 111.254C1239.82 101.617 1264.33 91.7216 1276.17 89.0507C1312.09 80.9418 1333.62 78.7756 1352.4 76.6653C1368.71 74.8325 1398.68 70.623 1417.52 68.4161C1436.36 66.2093 1443.14 65.9204 1447.75 65.644C1452.36 65.3676 1454.6 65.1123 1456.9 64.8493" stroke="#002363" stroke-width="2" stroke-linecap="round"/>
<path d="M2.16016 372.656C2.16016 372.535 25.6957 356.985 63.1772 332.079C81.0511 320.202 99.6294 307.662 124.656 292.804C147.194 279.424 171.831 278.835 200.035 280.371C215.412 281.208 232.692 285.392 259.353 293.639C286.014 301.885 321.466 314.893 342.076 322.141C367.21 330.98 385.697 332.093 407.088 332.717C416.921 333.004 436.685 327.762 487.375 313.044C520.426 303.448 567.81 287.715 593.382 279.192C625.982 268.326 631.838 260.136 667.063 245.788C683.02 239.289 709.645 239.041 743.287 237.949C751.004 237.699 758.037 241.177 771.611 246.334C790.981 253.694 813.106 262.505 836.341 272.705C863.183 284.488 884.454 288.291 893.981 290.912C902.364 293.22 912.495 293.054 931.395 290.461C964.931 285.86 989.397 276.36 1005.72 269.471C1017.76 264.392 1037.11 255.393 1052.16 247.805C1077.71 234.924 1099.27 216.853 1119.75 196.222C1144.64 171.141 1162.48 153.521 1181.25 139.987C1185.92 136.62 1193.41 133.429 1219.68 123.27C1245.94 113.111 1291.05 96.5388 1321.6 87.0714C1352.16 77.604 1366.78 75.7433 1388.88 74.9538C1410.98 74.1643 1440.13 74.5024 1471.37 75.9161" stroke="#002363" stroke-width="2" stroke-linecap="round"/>
<path d="M1.71289 394.939C1.96591 394.811 2.21894 394.683 21.3338 382.678C40.4487 370.672 78.4177 346.791 107.347 330.484C136.277 314.178 155.016 306.168 169.246 300.858C192.306 292.252 208.035 290.693 218.335 290.851C225.188 290.956 237.352 295.224 256.024 301.793C273.439 307.92 290.712 314.871 311.241 321.153C322.669 324.649 336.503 327.562 351.479 330.282C382.125 335.847 413.477 337.35 437.037 337.684C452.181 337.898 465.724 334.843 499.758 322.263C515.551 316.426 539.391 306.378 570.71 295.862C602.029 285.346 639.989 274.363 669.479 268.406C718.287 258.547 744.605 262.023 753.918 263.58C760.599 264.697 768.29 267.808 785.326 276.404C816.887 292.328 839.917 307.533 849.733 311.041C859.481 314.525 876.525 315.649 906.588 312.517C924.943 310.605 948.936 303.247 974.292 294.911C999.648 286.574 1025.47 276.256 1060.68 258.191C1095.88 240.126 1139.68 214.627 1168.57 195.606C1197.45 176.586 1210.09 164.817 1220.76 156.049C1239.09 141 1258.43 131.616 1291.03 118.579C1313.35 109.658 1348.25 98.3395 1373.95 90.9807C1399.65 83.622 1415.31 81.15 1430.53 79.8619C1445.74 78.5739 1460.03 78.5448 1468.75 78.7896C1477.47 79.0343 1480.2 79.5538 1483.01 80.089" stroke="#002363" stroke-width="2" stroke-linecap="round"/>
<path d="M3.78223 414.691C4.03301 414.691 18.0762 405.709 57.6936 381.736C83.1517 366.33 120.468 346.011 142.661 334.438C170.476 319.934 183.976 318.416 199.388 317.095C232.125 314.288 239.319 320.609 249.026 327.039C258.364 333.224 286.69 345.887 322.131 361.146C339.018 368.416 356.304 369.501 377.158 370.079C386.744 370.344 394.541 368.39 415.719 362.239C431.093 357.775 455.645 349.853 474.766 344.678C493.887 339.502 506.778 337.127 541.067 324.68C575.357 312.234 630.655 289.789 663.353 277.312C704.031 261.792 723.32 261.071 739.869 261.337C748.604 261.478 764.66 273.002 787.323 289.456C800.017 298.672 807.722 303.934 817.519 308.141C829.98 313.493 856.513 314.293 889.837 314.05C914.874 313.868 929.119 312.795 945.556 313.048C958.33 313.245 980.086 311.273 993.141 310.157C1006.2 309.041 1009.89 308.25 1044.83 294.056C1079.78 279.861 1145.87 252.286 1191.1 230.721C1236.34 209.155 1258.73 194.435 1273.14 185.518C1287.55 176.6 1293.31 173.931 1316.2 162.669C1339.1 151.407 1378.96 131.634 1406.75 119.62C1434.55 107.606 1449.07 103.952 1458.29 101.949C1467.51 99.9451 1471 99.7033 1474.58 99.4542" stroke="#002363" stroke-width="2" stroke-linecap="round"/>
<path d="M10.9976 431.203C11.1038 431.203 26.5249 422.27 56.5363 405.783C70.9787 397.848 84.6392 392.325 100.706 387.418C116.772 382.511 135.039 378.779 153.635 376.778C172.231 374.777 190.602 374.62 204.755 375.441C228.391 376.814 251.501 384.836 275.732 392.839C293.35 398.658 315.183 398.31 337.433 398.23C345.908 398.2 348.659 397.754 390.207 388.321C431.755 378.887 512.015 360.368 560.992 346.361C609.969 332.354 625.232 323.42 638.657 316.567C662.75 304.266 679.055 298.184 686.92 294.063C692.715 291.026 700.101 289.643 711.651 288.787C727.228 287.634 750.011 291.911 775.343 298.692C796.956 304.477 815.498 318.646 831.466 330.139C839.316 335.789 851.873 337.567 884.455 340.103C907.05 341.861 942.138 341.477 976.923 337.635C1011.71 333.794 1045.18 325.714 1063.41 321.495C1083.54 316.835 1095.47 314.171 1120.17 305.059C1135.31 299.472 1154.73 289.308 1169.14 281.596C1192.55 269.069 1203.73 260.905 1218.24 251.557C1230.04 243.953 1250.39 229.829 1265.69 220.505C1281 211.181 1290.52 206.903 1303.05 200.61C1315.58 194.317 1330.82 186.139 1344.71 179.931C1358.61 173.723 1370.69 169.733 1387.35 165.787C1404.01 161.84 1424.87 158.057 1436.37 156.07C1447.86 154.082 1449.36 154.004 1452.97 155.695" stroke="#002363" stroke-width="2" stroke-linecap="round"/>
<path d="M11.5093 458.182C11.6193 458.068 22.0303 452.544 54.4243 437.961C76.1733 428.17 109.876 416.239 137.751 408.51C165.626 400.781 186.953 398.309 203.669 397.036C220.385 395.762 231.844 395.762 244.353 397.772C270.438 401.963 290.084 410.524 300.587 414.586C306.188 416.752 324.315 416.745 354.422 415.955C368.229 415.593 378.964 413.358 394.436 410.01C409.907 406.661 429.768 401.769 452.234 397.556C474.701 393.344 499.171 389.959 530.787 381.505C562.403 373.05 600.422 359.628 628.237 348.992C656.053 338.356 672.512 330.912 682.352 326.718C694.76 321.43 717.622 320.976 750.984 321.38C770.923 321.622 783.629 326.052 801.082 333.032C829.374 344.347 850.374 355.999 860.279 359.733C865.248 361.606 869.778 364.237 896.794 364.423C923.81 364.608 973.092 362.474 1021.42 355.852C1069.75 349.23 1115.64 338.186 1155.42 323.836C1195.21 309.486 1227.5 292.165 1255.93 276.556C1284.35 260.948 1307.91 247.575 1322.58 238.842C1342.61 226.918 1353.83 219.306 1369.96 212.177C1408.72 195.047 1419.65 196.638 1431.87 199.049C1439.3 198.885 1452.38 197.769 1459.9 197.092C1467.42 196.415 1468.97 196.21 1470.57 195.999" stroke="#002363" stroke-width="2" stroke-linecap="round"/>
<path d="M20.8623 480.056C20.8623 480.111 20.8623 480.166 40.7466 471.749C60.6309 463.333 100.399 446.443 121.675 437.513C144.454 427.951 156.753 425.744 177.52 422.795C196.928 420.04 218.721 424.74 247.476 433.456C264.401 438.587 285.606 446.593 297.956 450.758C312.907 455.801 324.286 455.846 363.324 450.512C394.117 446.304 446.497 434.47 479.103 426.777C511.708 419.085 522.77 414.722 537.494 408.242C552.218 401.763 570.269 393.3 582.7 388.016C595.131 382.731 601.395 380.882 615.434 378.524C650.973 372.556 675.965 370.371 688.201 368.451C697.905 366.928 714.489 363.057 734.425 360.804C776.93 356.001 802.627 357.179 806.668 357.89C815.406 359.426 834.386 365.482 874.376 376.194C888.21 379.899 906.51 381.127 918.862 383.227C937.462 386.388 956.677 389.964 977.59 390.849C991.503 391.437 1027.16 384.831 1048.52 381.944C1056.92 380.81 1066.94 378.357 1088.32 371.44C1106.06 365.702 1137.17 353.604 1165.58 344.361C1193.99 335.117 1218.6 328.625 1241.04 321.64C1263.48 314.654 1283.01 307.371 1302.44 297.895C1321.86 288.419 1340.6 276.97 1354.9 269.224C1378.49 257.783 1397.74 252.184 1424.41 248.413C1441.41 246.433 1465.42 244.318 1490.17 242.139" stroke="#002363" stroke-width="2" stroke-linecap="round"/>
<path d="M30.2217 508.029C30.3317 508.029 41.0083 501.029 63.9228 487.457C88.7011 472.78 110.983 467.171 132.525 464.775C146.938 463.172 168.706 464.316 189.007 466.303C209.308 468.289 227.556 471.987 243.972 475.811C260.388 479.636 274.419 483.476 287.325 485.293C300.231 487.111 311.587 486.79 330.738 484.832C349.89 482.873 376.492 479.285 410.849 470.533C445.205 461.78 486.508 447.971 513.913 439.188C553.406 426.531 567.807 423.361 576.235 420.32C583.162 417.822 595.044 412.27 610.627 407.321C626.211 402.372 645.026 397.91 667.954 394.085C690.881 390.259 717.351 387.205 739.432 385.721C761.513 384.238 778.403 384.418 792.003 385.667C815.572 387.832 831.345 394.195 843.847 400.204C858.155 407.081 868.236 413.451 876.886 416.406C890.577 421.083 901.189 422.968 922.669 424.607C942.418 426.114 980.329 425.227 1004.09 424.616C1027.85 424.005 1036.36 422.734 1057.23 417.897C1078.11 413.06 1111.11 404.696 1129.92 399.687C1152.48 393.681 1163.54 389.817 1183.19 382.768C1213.11 372.031 1232.9 361.265 1249.67 355.61C1263.32 351.006 1286.26 339.732 1305.29 329.771C1339.18 312.03 1355 299.675 1359.99 295.934C1366.64 290.951 1375.3 286.571 1386.46 281.818C1401.93 275.231 1420.57 270.858 1435.12 267.331C1442.6 265.284 1453.79 262.588 1470.84 259.424C1478.65 258.3 1484.76 258.152 1491.05 257.999" stroke="#002363" stroke-width="2" stroke-linecap="round"/>
<path d="M18.3648 556.017C18.1857 556.017 20.6015 554.321 36.572 543.987C74.2414 519.613 110.03 499.899 131.446 493.111C152.514 486.434 167.681 486.828 174.505 487.197C180.985 487.549 205.968 498.827 241.484 514.292C267.273 525.521 295.621 523.522 343.544 517.613C371.886 514.119 407.076 501.377 437.91 490.82C468.745 480.263 493.819 470.17 519.959 461.202C546.099 452.233 572.543 444.694 589.657 440.387C606.77 436.081 613.751 435.234 645.747 432.951C677.742 430.669 734.54 426.976 780.096 428.005C825.651 429.034 858.241 434.897 882.148 440.298C906.055 445.699 920.292 450.461 939.028 453.287C980.254 459.505 1007.41 457.314 1023.39 453.981C1088.53 440.391 1109.5 434.503 1127.5 430.701C1152.29 425.464 1177.18 415.502 1215.19 401.761C1243.53 391.51 1290.41 374.964 1318.99 363.341C1357.42 347.718 1380.2 333.903 1409.81 324.789C1458.53 317.373 1469.82 316.743 1480 315.69C1484.59 315.268 1488 315.071 1491.53 314.869" stroke="#002363" stroke-width="2" stroke-linecap="round"/>
</svg>
