<svg width="1440" height="573" viewBox="0 0 1440 573" fill="none" xmlns="http://www.w3.org/2000/svg">
<path d="M-15.7544 443.144C-15.626 443.017 -15.4976 442.889 1.00521 431.755C17.508 420.621 50.3813 398.485 71.7691 384.973C101.423 366.238 118.809 361.028 134.99 358.146C171.164 351.702 196.401 370.996 215.516 384.217C237.392 399.348 265.631 401.373 300.634 403.654C320.884 404.973 346.302 404.486 362.339 403.84C378.376 403.195 384.292 401.86 391.66 399.953C399.028 398.045 407.668 395.604 420.19 391.99" stroke="#002363" stroke-width="2" stroke-linecap="round"/>
<path d="M-18.3184 482.553C-18.2817 482.401 -0.752986 469.208 29.9974 446.713C51.0888 431.284 62.001 425.971 69.4012 423.618C84.8367 418.711 98.128 416.463 113.587 415.682C148.229 413.931 173.635 414.291 187.334 418.086C198.508 421.181 217.97 427.592 235.228 431.772C252.485 435.952 266.876 437.947 282.404 438.937C297.932 439.927 314.16 439.851 330.407 438.036C362.427 432.67 389.879 424.958 407.841 418.666C414.605 416.427 416.593 416.125 420.107 415.583" stroke="#002363" stroke-width="2" stroke-linecap="round"/>
<path d="M634.48 349.182C639.552 346.428 663.016 331.781 690.574 317.818C729.898 297.894 761.049 308.556 771.635 313.016C784.909 318.608 791.949 326.88 799.908 333.747C807.658 340.433 818.526 341.347 838.505 342.591C844.621 343.198 848.324 343.718 852.632 344.089C855.037 344.239 857.885 344.311 863.299 344.955" stroke="#002363" stroke-width="2" stroke-linecap="round"/>
<path d="M-14.6958 509.954C-13.0369 507.749 17.2525 481.341 44.1296 462.306C59.0296 451.754 82.3538 445.579 104.552 439.152C123.723 433.602 147.472 432.796 169.973 432.245C180.472 431.988 189.47 434.715 201.096 438.251C208.681 440.559 226.071 446.061 266.382 453.036C291.746 457.425 328.066 456.732 351.284 456.202C399.209 448.834 413.721 442.677 418.304 441.002C420.333 440.2 421.76 439.498 423.23 438.774" stroke="#002363" stroke-width="2" stroke-linecap="round"/>
<path d="M634.48 349.182C639.552 346.428 663.016 331.781 690.574 317.818C729.898 297.894 761.049 308.556 771.635 313.016C784.909 318.608 791.949 326.88 799.908 333.747C807.658 340.433 818.526 341.347 838.505 342.591C844.621 343.198 848.324 343.718 852.632 344.089C855.037 344.239 857.885 344.311 863.299 344.955" stroke="#002363" stroke-width="2" stroke-linecap="round"/>
<path d="M-15.7544 443.144C-15.626 443.017 -15.4976 442.889 1.00521 431.755C17.508 420.621 50.3813 398.485 71.7691 384.973C101.423 366.238 118.809 361.028 134.99 358.146C171.164 351.702 196.401 370.996 215.516 384.217C237.392 399.348 265.631 401.373 300.634 403.654C320.884 404.973 346.302 404.486 362.339 403.84C378.376 403.195 384.292 401.86 391.66 399.953C399.028 398.045 407.668 395.604 420.19 391.99" stroke="#002363" stroke-width="2" stroke-linecap="round"/>
<path d="M-18.3184 482.553C-18.2817 482.401 -0.752986 469.208 29.9974 446.713C51.0888 431.284 62.001 425.971 69.4012 423.618C84.8367 418.711 98.128 416.463 113.587 415.682C148.229 413.931 173.635 414.291 187.334 418.086C198.508 421.181 217.97 427.592 235.228 431.772C252.485 435.952 266.876 437.947 282.404 438.937C297.932 439.927 314.16 439.851 330.407 438.036C362.427 432.67 389.879 424.958 407.841 418.666C414.605 416.427 416.593 416.125 420.107 415.583" stroke="#002363" stroke-width="2" stroke-linecap="round"/>
<path d="M-14.6958 509.954C-13.0369 507.749 17.2525 481.341 44.1296 462.306C59.0296 451.754 82.3538 445.579 104.552 439.152C123.723 433.602 147.472 432.796 169.973 432.245C180.472 431.988 189.47 434.715 201.096 438.251C208.681 440.559 226.071 446.061 266.382 453.036C291.746 457.425 328.066 456.732 351.284 456.202C399.209 448.834 413.721 442.677 418.304 441.002C420.333 440.2 421.76 439.498 423.23 438.774" stroke="#002363" stroke-width="2" stroke-linecap="round"/>
<path d="M-19.6108 311.761C-18.3611 309.99 12.4542 279.025 45.2498 252.833C62.4697 239.08 94.2292 239.273 130.569 236.128C146.944 234.71 159.241 235.121 179.248 237.635C199.255 240.149 226.629 245.129 259.358 248.39C292.086 251.65 329.339 253.041 354.018 252.53C378.696 252.019 389.67 249.565 399.986 246.337C410.301 243.109 419.625 239.182 439.579 228.875C459.533 218.568 489.836 202.001 515.112 190.195C540.388 178.388 559.718 171.846 576.451 167.471C606.377 159.647 628.396 158.962 648.755 160.802C661.505 161.954 678.788 166.547 707.661 176.629C736.533 186.71 776.375 202.908 798.826 211.799C824.977 222.155 839.082 223.108 857.705 222.729C866.363 222.553 873.336 220.789 887.648 215.911C901.961 211.033 923.383 202.678 950.54 188.229C977.698 173.78 1009.94 153.489 1027.62 142.091C1053.51 125.391 1057.05 110.607 1072.5 96.0528C1081.56 87.5225 1101.51 78.254 1115.95 70.8112C1130.39 63.3683 1140.2 59.8215 1152.82 56.3621C1165.44 52.9026 1180.58 49.6379 1220.95 46.9497C1261.32 44.2614 1326.47 42.2484 1361.19 40.9371C1395.92 39.6258 1398.25 39.0772 1409.61 34.2044C1441.27 20.1511 1470.18 8.24059 1483.44 4.29055C1488.7 2.79236 1490.96 2.32214 1493.3 1.83768" stroke="#002363" stroke-width="2" stroke-linecap="round"/>
<path d="M-20.5212 333.393C-20.5212 333.263 -18.8037 331.14 -10.963 323.42C4.9028 307.798 27.4407 291.623 48.9524 277.763C85.199 254.41 105.845 250.577 117.786 249.523C127.391 248.676 144.296 248.581 191.986 254.054C239.676 259.526 317.665 270.924 360.431 276.761C403.197 282.599 408.377 282.532 422.66 276.668C436.943 270.803 460.172 259.144 478.396 249.115C496.62 239.086 509.135 231.041 522.884 223.826C536.632 216.61 551.234 210.468 564.504 205.885C577.774 201.301 589.269 198.462 607.385 196.847C625.501 195.232 649.89 194.927 665.979 195.233C689.146 195.673 711.105 202.555 744.82 216.162C787.881 233.54 812.155 248.995 816.495 250.214C818.756 250.849 821.288 250.929 841.13 248.396C860.972 245.862 898.085 240.562 927.931 234.104C957.776 227.645 979.23 220.189 998.588 211.682C1035.38 195.517 1054.26 182.085 1063.28 173.279C1069.9 166.809 1079.9 155.517 1093.46 142.519C1122.95 114.254 1144.26 97.8457 1151.18 93.9398C1157.64 90.2962 1164.04 88.7448 1201.72 85.5282C1236.63 82.9072 1303.61 78.2789 1357.43 69.699C1411.25 61.119 1449.88 48.7276 1493.65 34.088" stroke="#002363" stroke-width="2" stroke-linecap="round"/>
<path d="M-18.1726 350.654C-18.1726 350.525 2.85243 333.31 42.5737 302.542C75.3422 277.16 95.3629 268.636 102.016 266.603C113.088 263.221 122.393 262.123 132.512 261.91C154.288 261.451 179.498 264.582 201.975 269.068C213.497 271.368 225.064 274.579 250.932 278.141C276.799 281.703 316.568 285.74 340.331 288.707C370.787 292.511 391.301 296.841 415.707 299.173C432.834 300.809 442.528 299.347 455.336 295.627C465.505 292.674 482.735 286.346 507.089 274.614C531.444 262.883 562.302 245.63 581.314 235.542C606.18 222.349 615.143 220.108 622.059 219.208C634.012 217.651 657.319 216.032 685.778 213.073C707.649 210.799 723.889 213.634 738.436 217.784C756.339 222.891 775.266 235.542 798.812 245.358C825.826 256.62 855.171 257.922 873.946 263.488C882.633 266.064 890.63 265.199 912.293 260.933C928.036 257.832 953.023 251.039 974.752 244.708C996.48 238.377 1014.09 232.255 1028.29 226.432C1053.2 216.222 1066.76 207.342 1078.39 197.731C1118.11 164.893 1131.36 149.323 1140.23 138.291C1147.86 128.799 1172.45 121.337 1193.46 116.899C1198.33 115.872 1202.53 116.181 1216.12 112.092C1248.13 102.455 1273.23 92.5593 1285.35 89.8884C1322.14 81.7795 1344.19 79.6133 1363.42 77.503C1380.12 75.6702 1410.81 71.4607 1430.11 69.2538C1449.41 67.047 1456.35 66.7581 1461.07 66.4817C1465.79 66.2052 1468.08 65.95 1470.44 65.687" stroke="#002363" stroke-width="2" stroke-linecap="round"/>
<path d="M-19.333 373.494C-19.333 373.373 4.76931 357.822 43.1534 332.917C61.4577 321.04 80.4833 308.5 106.112 293.642C129.193 280.261 154.424 279.673 183.306 281.208C199.054 282.045 216.75 286.23 244.053 294.477C271.356 302.723 307.662 315.73 328.768 322.978C354.508 331.818 373.439 332.931 395.345 333.555C405.415 333.842 425.656 328.6 477.567 313.882C511.413 304.285 559.938 288.552 586.126 280.029C619.511 269.164 625.508 260.973 661.582 246.626C677.923 240.127 705.189 239.879 739.641 238.787C747.544 238.537 754.746 242.015 768.647 247.172C788.483 254.532 811.142 263.343 834.935 273.542C862.424 285.325 884.207 289.128 893.963 291.75C902.548 294.057 912.924 293.892 932.279 291.299C966.622 286.698 991.677 277.198 1008.4 270.309C1020.72 265.23 1040.54 256.23 1055.95 248.643C1082.12 235.761 1104.2 217.691 1125.17 197.059C1150.66 171.978 1168.92 154.359 1188.15 140.825C1192.93 137.458 1200.6 134.267 1227.5 124.108C1254.4 113.948 1300.6 97.3765 1331.89 87.9091C1363.17 78.4417 1378.14 76.581 1400.78 75.7915C1423.42 75.002 1453.26 75.3401 1485.25 76.7538" stroke="#002363" stroke-width="2" stroke-linecap="round"/>
<path d="M-19.7915 395.776C-19.5324 395.649 -19.2733 395.521 0.301891 383.515C19.8771 371.509 58.7604 347.629 88.3865 331.322C118.013 315.015 137.203 307.006 151.776 301.695C175.391 293.09 191.499 291.53 202.047 291.689C209.065 291.794 221.522 296.061 240.644 302.631C258.478 308.758 276.167 315.709 297.19 321.99C308.893 325.487 323.06 328.399 338.397 331.119C369.781 336.685 401.888 338.187 426.015 338.521C441.524 338.736 455.394 335.681 490.247 323.101C506.42 317.263 530.834 307.215 562.907 296.699C594.98 286.183 633.855 275.2 664.055 269.243C714.038 259.385 740.99 262.861 750.527 264.418C757.369 265.535 765.245 268.646 782.692 277.242C815.012 293.166 838.598 308.371 848.65 311.879C858.632 315.363 876.087 316.486 906.873 313.355C925.671 311.442 950.242 304.085 976.208 295.748C1002.17 287.411 1028.62 277.093 1064.67 259.029C1100.72 240.964 1145.58 215.464 1175.16 196.444C1204.74 177.423 1217.68 165.655 1228.61 156.887C1247.38 141.837 1267.19 132.454 1300.58 119.417C1323.43 110.496 1359.17 99.1771 1385.49 91.8184C1411.81 84.4596 1427.85 81.9876 1443.43 80.6996C1459.01 79.4116 1473.64 79.3825 1482.57 79.6272C1491.51 79.872 1494.3 80.3915 1497.18 80.9267" stroke="#002363" stroke-width="2" stroke-linecap="round"/>
<path d="M-17.6724 415.528C-17.4155 415.528 -3.03418 406.547 37.5372 382.573C63.6084 367.168 101.823 346.848 124.551 335.276C153.036 320.771 166.86 319.254 182.644 317.933C216.169 315.126 223.536 321.447 233.477 327.877C243.04 334.062 272.048 346.725 308.343 361.984C325.636 369.254 343.339 370.339 364.695 370.916C374.511 371.182 382.496 369.227 404.184 363.077C419.928 358.612 445.072 350.691 464.653 345.515C484.235 340.34 497.436 337.964 532.551 325.518C567.666 313.071 624.296 290.626 657.782 278.15C699.439 262.629 719.192 261.908 736.14 262.175C745.086 262.316 761.528 273.84 784.736 290.294C797.737 299.51 805.627 304.771 815.66 308.978C828.421 314.33 855.593 315.13 889.719 314.888C915.36 314.705 929.948 313.632 946.78 313.886C959.861 314.083 982.141 312.111 995.512 310.995C1008.88 309.878 1012.66 309.088 1048.45 294.893C1084.24 280.699 1151.91 253.124 1198.24 231.558C1244.57 209.993 1267.5 195.273 1282.26 186.355C1297.01 177.438 1302.91 174.769 1326.35 163.507C1349.8 152.245 1390.62 132.471 1419.08 120.458C1447.54 108.444 1462.42 104.79 1471.86 102.786C1481.31 100.783 1484.87 100.541 1488.55 100.292" stroke="#002363" stroke-width="2" stroke-linecap="round"/>
<path d="M564.264 341.44C567.656 341.326 578.28 340.463 613.1 328.75C632.948 322.073 664.553 307.228 684.486 299.343C726.784 282.611 759.234 290.8 771.026 296.338C780.331 300.707 794.022 310.138 821.285 321.775C838.09 328.948 862.237 330.676 878.807 332.24C888.057 333.114 895.527 337.608 931.747 340.451C948.162 341.74 972.012 340.164 992.637 338.813C1013.26 337.463 1029.99 335.311 1045.89 331.948C1061.79 328.585 1076.36 324.075 1093.58 317.315C1110.81 310.555 1130.25 301.681 1154.05 289.567C1177.85 277.454 1205.42 262.369 1239.61 247.592C1273.8 232.816 1313.77 218.806 1340.63 208.52C1380.5 193.249 1399.84 181.814 1419.63 172.003C1432.51 166.152 1451.13 158.528 1462.15 154.308C1473.17 150.088 1476 149.504 1481.49 148.901" stroke="#002363" stroke-width="2" stroke-linecap="round"/>
<path d="M1021.35 359.211C1021.48 359.211 1045.25 359 1088.36 357.319C1107.8 356.56 1122.12 353.123 1138.14 348.515C1154.15 343.907 1171.38 337.498 1190.32 328.898C1209.26 320.298 1229.39 309.7 1244.52 300.79C1269.78 285.915 1289.52 269.441 1308.59 255.282C1322.25 245.146 1339.85 240.601 1370.39 230.369C1390.89 223.501 1421.46 213 1440.46 206.241C1459.45 199.482 1465.92 196.723 1470.18 195.113C1474.45 193.503 1476.32 193.124 1479.7 192.734" stroke="#002363" stroke-width="2" stroke-linecap="round"/>
<path d="M1017.13 389.758C1017.35 389.758 1033.85 389.214 1080.99 385.105C1111.84 382.416 1156.38 374.967 1187.09 368.576C1217.81 362.185 1233.26 356.174 1244.49 351.072C1262.7 342.802 1270.45 336.491 1283.22 324.57C1294.57 313.987 1315.77 294.187 1330 281.841C1350.12 264.378 1370.64 255.096 1391.28 245.863C1406.62 239.326 1431.71 234.041 1460.09 226.753C1471.29 223.936 1476.02 222.907 1483.1 221.244" stroke="#002363" stroke-width="2" stroke-linecap="round"/>
<path d="M-19.6108 311.761C-18.3611 309.99 12.4542 279.025 45.2498 252.833C62.4697 239.08 94.2292 239.273 130.569 236.128C146.944 234.71 159.241 235.121 179.248 237.635C199.255 240.149 226.629 245.129 259.358 248.39C292.086 251.65 329.339 253.041 354.018 252.53C378.696 252.019 389.67 249.565 399.986 246.337C410.301 243.109 419.625 239.182 439.579 228.875C459.533 218.568 489.836 202.001 515.112 190.195C540.388 178.388 559.718 171.846 576.451 167.471C606.377 159.647 628.396 158.962 648.755 160.802C661.505 161.954 678.788 166.547 707.661 176.629C736.533 186.71 776.375 202.908 798.826 211.799C824.977 222.155 839.082 223.108 857.705 222.729C866.363 222.553 873.336 220.789 887.648 215.911C901.961 211.033 923.383 202.678 950.54 188.229C977.698 173.78 1009.94 153.489 1027.62 142.091C1053.51 125.391 1057.05 110.607 1072.5 96.0528C1081.56 87.5225 1101.51 78.254 1115.95 70.8112C1130.39 63.3683 1140.2 59.8215 1152.82 56.3621C1165.44 52.9026 1180.58 49.6379 1220.95 46.9497C1261.32 44.2614 1326.47 42.2484 1361.19 40.9371C1395.92 39.6258 1398.25 39.0772 1409.61 34.2044C1441.27 20.1511 1470.18 8.24059 1483.44 4.29055C1488.7 2.79236 1490.96 2.32214 1493.3 1.83768" stroke="#002363" stroke-width="2" stroke-linecap="round"/>
<path d="M-20.5212 333.393C-20.5212 333.263 -18.8037 331.14 -10.963 323.42C4.9028 307.798 27.4407 291.623 48.9524 277.763C85.199 254.41 105.845 250.577 117.786 249.523C127.391 248.676 144.296 248.581 191.986 254.054C239.676 259.526 317.665 270.924 360.431 276.761C403.197 282.599 408.377 282.532 422.66 276.668C436.943 270.803 460.172 259.144 478.396 249.115C496.62 239.086 509.135 231.041 522.884 223.826C536.632 216.61 551.234 210.468 564.504 205.885C577.774 201.301 589.269 198.462 607.385 196.847C625.501 195.232 649.89 194.927 665.979 195.233C689.146 195.673 711.105 202.555 744.82 216.162C787.881 233.54 812.155 248.995 816.495 250.214C818.756 250.849 821.288 250.929 841.13 248.396C860.972 245.862 898.085 240.562 927.931 234.104C957.776 227.645 979.23 220.189 998.588 211.682C1035.38 195.517 1054.26 182.085 1063.28 173.279C1069.9 166.809 1079.9 155.517 1093.46 142.519C1122.95 114.254 1144.26 97.8457 1151.18 93.9398C1157.64 90.2962 1164.04 88.7448 1201.72 85.5282C1236.63 82.9072 1303.61 78.2789 1357.43 69.699C1411.25 61.119 1449.88 48.7276 1493.65 34.088" stroke="#002363" stroke-width="2" stroke-linecap="round"/>
<path d="M-18.1726 350.654C-18.1726 350.525 2.85243 333.31 42.5737 302.542C75.3422 277.16 95.3629 268.636 102.016 266.603C113.088 263.221 122.393 262.123 132.512 261.91C154.288 261.451 179.498 264.582 201.975 269.068C213.497 271.368 225.064 274.579 250.932 278.141C276.799 281.703 316.568 285.74 340.331 288.707C370.787 292.511 391.301 296.841 415.707 299.173C432.834 300.809 442.528 299.347 455.336 295.627C465.505 292.674 482.735 286.346 507.089 274.614C531.444 262.883 562.302 245.63 581.314 235.542C606.18 222.349 615.143 220.108 622.059 219.208C634.012 217.651 657.319 216.032 685.778 213.073C707.649 210.799 723.889 213.634 738.436 217.784C756.339 222.891 775.266 235.542 798.812 245.358C825.826 256.62 855.171 257.922 873.946 263.488C882.633 266.064 890.63 265.199 912.293 260.933C928.036 257.832 953.023 251.039 974.752 244.708C996.48 238.377 1014.09 232.255 1028.29 226.432C1053.2 216.222 1066.76 207.342 1078.39 197.731C1118.11 164.893 1131.36 149.323 1140.23 138.291C1147.86 128.799 1172.45 121.337 1193.46 116.899C1198.33 115.872 1202.53 116.181 1216.12 112.092C1248.13 102.455 1273.23 92.5593 1285.35 89.8884C1322.14 81.7795 1344.19 79.6133 1363.42 77.503C1380.12 75.6702 1410.81 71.4607 1430.11 69.2538C1449.41 67.047 1456.35 66.7581 1461.07 66.4817C1465.79 66.2052 1468.08 65.95 1470.44 65.687" stroke="#002363" stroke-width="2" stroke-linecap="round"/>
<path d="M-19.333 373.494C-19.333 373.373 4.76931 357.822 43.1534 332.917C61.4577 321.04 80.4833 308.5 106.112 293.642C129.193 280.261 154.424 279.673 183.306 281.208C199.054 282.045 216.75 286.23 244.053 294.477C271.356 302.723 307.662 315.73 328.768 322.978C354.508 331.818 373.439 332.931 395.345 333.555C405.415 333.842 425.656 328.6 477.567 313.882C511.413 304.285 559.938 288.552 586.126 280.029C619.511 269.164 625.508 260.973 661.582 246.626C677.923 240.127 705.189 239.879 739.641 238.787C747.544 238.537 754.746 242.015 768.647 247.172C788.483 254.532 811.142 263.343 834.935 273.542C862.424 285.325 884.207 289.128 893.963 291.75C902.548 294.057 912.924 293.892 932.279 291.299C966.622 286.698 991.677 277.198 1008.4 270.309C1020.72 265.23 1040.54 256.23 1055.95 248.643C1082.12 235.761 1104.2 217.691 1125.17 197.059C1150.66 171.978 1168.92 154.359 1188.15 140.825C1192.93 137.458 1200.6 134.267 1227.5 124.108C1254.4 113.948 1300.6 97.3765 1331.89 87.9091C1363.17 78.4417 1378.14 76.581 1400.78 75.7915C1423.42 75.002 1453.26 75.3401 1485.25 76.7538" stroke="#002363" stroke-width="2" stroke-linecap="round"/>
<path d="M-19.7915 395.776C-19.5324 395.649 -19.2733 395.521 0.301891 383.515C19.8771 371.509 58.7604 347.629 88.3865 331.322C118.013 315.015 137.203 307.006 151.776 301.695C175.391 293.09 191.499 291.53 202.047 291.689C209.065 291.794 221.522 296.061 240.644 302.631C258.478 308.758 276.167 315.709 297.19 321.99C308.893 325.487 323.06 328.399 338.397 331.119C369.781 336.685 401.888 338.187 426.015 338.521C441.524 338.736 455.394 335.681 490.247 323.101C506.42 317.263 530.834 307.215 562.907 296.699C594.98 286.183 633.855 275.2 664.055 269.243C714.038 259.385 740.99 262.861 750.527 264.418C757.369 265.535 765.245 268.646 782.692 277.242C815.012 293.166 838.598 308.371 848.65 311.879C858.632 315.363 876.087 316.486 906.873 313.355C925.671 311.442 950.242 304.085 976.208 295.748C1002.17 287.411 1028.62 277.093 1064.67 259.029C1100.72 240.964 1145.58 215.464 1175.16 196.444C1204.74 177.423 1217.68 165.655 1228.61 156.887C1247.38 141.837 1267.19 132.454 1300.58 119.417C1323.43 110.496 1359.17 99.1771 1385.49 91.8184C1411.81 84.4596 1427.85 81.9876 1443.43 80.6996C1459.01 79.4116 1473.64 79.3825 1482.57 79.6272C1491.51 79.872 1494.3 80.3915 1497.18 80.9267" stroke="#002363" stroke-width="2" stroke-linecap="round"/>
<path d="M-17.6724 415.528C-17.4155 415.528 -3.03418 406.547 37.5372 382.573C63.6084 367.168 101.823 346.848 124.551 335.276C153.036 320.771 166.86 319.254 182.644 317.933C216.169 315.126 223.536 321.447 233.477 327.877C243.04 334.062 272.048 346.725 308.343 361.984C325.636 369.254 343.339 370.339 364.695 370.916C374.511 371.182 382.496 369.227 404.184 363.077C419.928 358.612 445.072 350.691 464.653 345.515C484.235 340.34 497.436 337.964 532.551 325.518C567.666 313.071 624.296 290.626 657.782 278.15C699.439 262.629 719.192 261.908 736.14 262.175C745.086 262.316 761.528 273.84 784.736 290.294C797.737 299.51 805.627 304.771 815.66 308.978C828.421 314.33 855.593 315.13 889.719 314.888C915.36 314.705 929.948 313.632 946.78 313.886C959.861 314.083 982.141 312.111 995.512 310.995C1008.88 309.878 1012.66 309.088 1048.45 294.893C1084.24 280.699 1151.91 253.124 1198.24 231.558C1244.57 209.993 1267.5 195.273 1282.26 186.355C1297.01 177.438 1302.91 174.769 1326.35 163.507C1349.8 152.245 1390.62 132.471 1419.08 120.458C1447.54 108.444 1462.42 104.79 1471.86 102.786C1481.31 100.783 1484.87 100.541 1488.55 100.292" stroke="#002363" stroke-width="2" stroke-linecap="round"/>
<path d="M564.264 341.44C567.656 341.326 578.28 340.463 613.1 328.75C632.948 322.073 664.553 307.228 684.486 299.343C726.784 282.611 759.234 290.8 771.026 296.338C780.331 300.707 794.022 310.138 821.285 321.775C838.09 328.948 862.237 330.676 878.807 332.24C888.057 333.114 895.527 337.608 931.747 340.451C948.162 341.74 972.012 340.164 992.637 338.813C1013.26 337.463 1029.99 335.311 1045.89 331.948C1061.79 328.585 1076.36 324.075 1093.58 317.315C1110.81 310.555 1130.25 301.681 1154.05 289.567C1177.85 277.454 1205.42 262.369 1239.61 247.592C1273.8 232.816 1313.77 218.806 1340.63 208.52C1380.5 193.249 1399.84 181.814 1419.63 172.003C1432.51 166.152 1451.13 158.528 1462.15 154.308C1473.17 150.088 1476 149.504 1481.49 148.901" stroke="#002363" stroke-width="2" stroke-linecap="round"/>
<path d="M1021.35 359.211C1021.48 359.211 1045.25 359 1088.36 357.319C1107.8 356.56 1122.12 353.123 1138.14 348.515C1154.15 343.907 1171.38 337.498 1190.32 328.898C1209.26 320.298 1229.39 309.7 1244.52 300.79C1269.78 285.915 1289.52 269.441 1308.59 255.282C1322.25 245.146 1339.85 240.601 1370.39 230.369C1390.89 223.501 1421.46 213 1440.46 206.241C1459.45 199.482 1465.92 196.723 1470.18 195.113C1474.45 193.503 1476.32 193.124 1479.7 192.734" stroke="#002363" stroke-width="2" stroke-linecap="round"/>
<path d="M-14.5496 545.532C-13.3366 543.912 2.70135 528.667 29.4228 505.765C53.5567 485.08 73.5572 475.357 83.9807 471.179C88.3642 469.422 91.0574 468.768 101.673 468.302C112.289 467.836 130.784 467.672 167.262 470.501C203.74 473.33 257.641 479.156 291.516 482.049C325.39 484.942 337.606 484.726 348.886 483.685C370.137 480.788 390.304 474.679 406.063 468.109C411.931 465.736 413.474 465.314 416.471 464.879" stroke="#002363" stroke-width="2" stroke-linecap="round"/>
<path d="M-17.1091 571.812C-16.1844 571.613 -9.62498 567.673 11.0541 552.704C25.9325 541.933 48.575 523.259 61.8871 512.418C83.5043 494.813 95.6991 486.198 108.462 480.795C113.127 478.821 126.917 478.898 156.605 481.404C175.251 482.979 200.695 489.192 220.845 492.831C240.994 496.469 254.958 498.373 270.064 499.398C300.941 501.495 323.971 499.95 337.892 498.075C367.721 491.925 386.087 488.116 406.805 484.226C411.303 483.41 412.994 483.081 415.477 482.743" stroke="#002363" stroke-width="2" stroke-linecap="round"/>
</svg>
